# xmcd
#
# Track frame offsets: 
#        150
#        13535
#        27412
#        38645
#        51849
#        64113
#        78190
#        98843
#        109740
#        121371
#        134673
#        147313
#        160756
#        171849
#        183585
#
# Disc length: 2592 seconds
#
# Revision: 0
# Processed by: cddbd v1.5.2PL0 Copyright (c) Steve Scherf et al.
# Submitted via: ExactAudioCopy v1.0b4
#
DISCID=c90a1e0f
DTITLE=Roy Brown - Good Rocking Tonight  (LP)
DYEAR=1947
DGENRE=Blues
TTITLE0=Good Rocking Tonight
TTITLE1=Long About Midnight
TTITLE2=Whose Hat Is That
TTITLE3=Fore Day In The Morning
TTITLE4=Butcher Pete
TTITLE5=Dreaming Blues
TTITLE6=Old Age Boogie
TTITLE7=Good Man Blues
TTITLE8=Miss Fanny Brown Returns
TTITLE9=Brown Angel
TTITLE10=Grandpa Stole My Baby
TTITLE11=Teenage Jamboree
TTITLE12=Black Diamond
TTITLE13=This Is My Last Goodbye
TTITLE14=Mighty, Mighty Man
EXTD=
EXTT0=
EXTT1=
EXTT2=
EXTT3=
EXTT4=
EXTT5=
EXTT6=
EXTT7=
EXTT8=
EXTT9=
EXTT10=
EXTT11=
EXTT12=
EXTT13=
EXTT14=
PLAYORDER=
